<mxfile host="65bd71144e" scale="2" border="0">
    <diagram id="fldr3gODsz9kr09m95sS" name="Page-1">
        <mxGraphModel dx="1251" dy="296" grid="1" gridSize="10" guides="1" tooltips="1" connect="1" arrows="1" fold="1" page="1" pageScale="1" pageWidth="850" pageHeight="1100" background="none" math="0" shadow="0">
            <root>
                <mxCell id="0"/>
                <mxCell id="1" parent="0"/>
                <mxCell id="195" value="" style="endArrow=none;html=1;strokeColor=default;" parent="1" source="191" target="171" edge="1">
                    <mxGeometry width="50" height="50" relative="1" as="geometry">
                        <mxPoint x="-400" y="495.15098722415814" as="sourcePoint"/>
                        <mxPoint x="-480" y="400" as="targetPoint"/>
                    </mxGeometry>
                </mxCell>
                <mxCell id="200" value="" style="endArrow=none;html=1;strokeColor=default;" parent="1" source="191" target="175" edge="1">
                    <mxGeometry width="50" height="50" relative="1" as="geometry">
                        <mxPoint x="-364.87033593507886" y="520.0000000000001" as="sourcePoint"/>
                        <mxPoint x="-220" y="570" as="targetPoint"/>
                    </mxGeometry>
                </mxCell>
                <mxCell id="88" value="" style="endArrow=none;html=1;strokeColor=default;" parent="1" source="75" target="80" edge="1">
                    <mxGeometry width="50" height="50" relative="1" as="geometry">
                        <mxPoint x="325" y="595" as="sourcePoint"/>
                        <mxPoint x="375" y="545" as="targetPoint"/>
                    </mxGeometry>
                </mxCell>
                <mxCell id="220" value="" style="endArrow=none;html=1;strokeColor=default;" edge="1" parent="1" source="58" target="59">
                    <mxGeometry width="50" height="50" relative="1" as="geometry">
                        <mxPoint x="-237.98798059818864" y="690" as="sourcePoint"/>
                        <mxPoint x="-276.1955422945317" y="710.1156055650745" as="targetPoint"/>
                    </mxGeometry>
                </mxCell>
                <mxCell id="72" value="" style="endArrow=none;html=1;strokeColor=default;" parent="1" source="58" target="64" edge="1">
                    <mxGeometry width="50" height="50" relative="1" as="geometry">
                        <mxPoint x="330" y="640" as="sourcePoint"/>
                        <mxPoint x="380" y="590" as="targetPoint"/>
                    </mxGeometry>
                </mxCell>
                <mxCell id="74" value="" style="endArrow=none;html=1;strokeColor=default;" parent="1" source="58" target="67" edge="1">
                    <mxGeometry width="50" height="50" relative="1" as="geometry">
                        <mxPoint x="364.4030512224542" y="690" as="sourcePoint"/>
                        <mxPoint x="440.6597097681465" y="638.1301052950197" as="targetPoint"/>
                    </mxGeometry>
                </mxCell>
                <mxCell id="100" value="" style="endArrow=none;html=1;strokeColor=default;" parent="1" source="94" target="116" edge="1">
                    <mxGeometry width="50" height="50" relative="1" as="geometry">
                        <mxPoint x="20" y="710" as="sourcePoint"/>
                        <mxPoint x="86.25" y="809.9999999999998" as="targetPoint"/>
                    </mxGeometry>
                </mxCell>
                <mxCell id="101" value="" style="endArrow=none;html=1;strokeColor=default;" parent="1" source="116" target="95" edge="1">
                    <mxGeometry width="50" height="50" relative="1" as="geometry">
                        <mxPoint x="111.25" y="809.9999999999998" as="sourcePoint"/>
                        <mxPoint x="70" y="660" as="targetPoint"/>
                    </mxGeometry>
                </mxCell>
                <mxCell id="28" value="" style="endArrow=none;html=1;" parent="1" source="2" target="8" edge="1">
                    <mxGeometry width="50" height="50" relative="1" as="geometry">
                        <mxPoint x="-10" y="230" as="sourcePoint"/>
                        <mxPoint x="40" y="180" as="targetPoint"/>
                    </mxGeometry>
                </mxCell>
                <mxCell id="29" value="" style="endArrow=none;html=1;" parent="1" source="2" target="9" edge="1">
                    <mxGeometry width="50" height="50" relative="1" as="geometry">
                        <mxPoint x="-10" y="230" as="sourcePoint"/>
                        <mxPoint x="40" y="180" as="targetPoint"/>
                    </mxGeometry>
                </mxCell>
                <mxCell id="2" value="Users" style="rounded=0;whiteSpace=wrap;html=1;" parent="1" vertex="1">
                    <mxGeometry x="-90" y="260" width="90" height="40" as="geometry"/>
                </mxCell>
                <mxCell id="5" value="email" style="ellipse;whiteSpace=wrap;html=1;" parent="1" vertex="1">
                    <mxGeometry x="-93.75" y="130" width="50" height="30" as="geometry"/>
                </mxCell>
                <mxCell id="6" value="email_verified_at" style="ellipse;whiteSpace=wrap;html=1;" parent="1" vertex="1">
                    <mxGeometry x="-140" y="90" width="110" height="30" as="geometry"/>
                </mxCell>
                <mxCell id="8" value="remember_token" style="ellipse;whiteSpace=wrap;html=1;" parent="1" vertex="1">
                    <mxGeometry x="-40" y="130" width="110" height="30" as="geometry"/>
                </mxCell>
                <mxCell id="9" value="created_at" style="ellipse;whiteSpace=wrap;html=1;dashed=1;" parent="1" vertex="1">
                    <mxGeometry x="40" y="170" width="110" height="30" as="geometry"/>
                </mxCell>
                <mxCell id="20" value="" style="endArrow=none;html=1;exitX=0.444;exitY=0.007;exitDx=0;exitDy=0;exitPerimeter=0;" parent="1" source="2" target="5" edge="1">
                    <mxGeometry width="50" height="50" relative="1" as="geometry">
                        <mxPoint x="40" y="230" as="sourcePoint"/>
                        <mxPoint x="90" y="180" as="targetPoint"/>
                    </mxGeometry>
                </mxCell>
                <mxCell id="21" value="" style="endArrow=none;html=1;" parent="1" source="2" target="4" edge="1">
                    <mxGeometry width="50" height="50" relative="1" as="geometry">
                        <mxPoint x="-170" y="210" as="sourcePoint"/>
                        <mxPoint x="-120" y="160" as="targetPoint"/>
                    </mxGeometry>
                </mxCell>
                <mxCell id="22" value="" style="endArrow=none;html=1;" parent="1" source="3" target="2" edge="1">
                    <mxGeometry width="50" height="50" relative="1" as="geometry">
                        <mxPoint x="40" y="230" as="sourcePoint"/>
                        <mxPoint x="90" y="180" as="targetPoint"/>
                    </mxGeometry>
                </mxCell>
                <mxCell id="25" value="" style="endArrow=none;html=1;" parent="1" source="2" target="7" edge="1">
                    <mxGeometry width="50" height="50" relative="1" as="geometry">
                        <mxPoint x="40" y="230" as="sourcePoint"/>
                        <mxPoint x="90" y="180" as="targetPoint"/>
                    </mxGeometry>
                </mxCell>
                <mxCell id="26" value="" style="endArrow=none;html=1;" parent="1" source="2" target="10" edge="1">
                    <mxGeometry width="50" height="50" relative="1" as="geometry">
                        <mxPoint x="-64.55207729620702" y="260" as="sourcePoint"/>
                        <mxPoint x="-82.76227108042201" y="139.987579740429" as="targetPoint"/>
                    </mxGeometry>
                </mxCell>
                <mxCell id="10" value="updated_at" style="ellipse;whiteSpace=wrap;html=1;dashed=1;" parent="1" vertex="1">
                    <mxGeometry x="-40" y="210" width="110" height="30" as="geometry"/>
                </mxCell>
                <mxCell id="27" value="" style="endArrow=none;html=1;" parent="1" source="2" target="6" edge="1">
                    <mxGeometry width="50" height="50" relative="1" as="geometry">
                        <mxPoint x="40" y="230" as="sourcePoint"/>
                        <mxPoint x="90" y="180" as="targetPoint"/>
                    </mxGeometry>
                </mxCell>
                <mxCell id="4" value="name" style="ellipse;whiteSpace=wrap;html=1;" parent="1" vertex="1">
                    <mxGeometry x="-130" y="210" width="50" height="30" as="geometry"/>
                </mxCell>
                <mxCell id="7" value="password" style="ellipse;whiteSpace=wrap;html=1;" parent="1" vertex="1">
                    <mxGeometry x="-90" y="170" width="110" height="30" as="geometry"/>
                </mxCell>
                <mxCell id="3" value="&lt;u&gt;id&lt;/u&gt;" style="ellipse;whiteSpace=wrap;html=1;" parent="1" vertex="1">
                    <mxGeometry x="-150" y="150" width="50" height="30" as="geometry"/>
                </mxCell>
                <mxCell id="31" value="Google_auth" style="rounded=0;whiteSpace=wrap;html=1;" parent="1" vertex="1">
                    <mxGeometry x="240" y="260" width="130" height="40" as="geometry"/>
                </mxCell>
                <mxCell id="42" value="" style="endArrow=none;html=1;strokeColor=default;" parent="1" source="31" target="33" edge="1">
                    <mxGeometry width="50" height="50" relative="1" as="geometry">
                        <mxPoint x="110" y="360" as="sourcePoint"/>
                        <mxPoint x="160" y="310" as="targetPoint"/>
                    </mxGeometry>
                </mxCell>
                <mxCell id="43" value="" style="endArrow=none;html=1;strokeColor=default;" parent="1" source="31" target="34" edge="1">
                    <mxGeometry width="50" height="50" relative="1" as="geometry">
                        <mxPoint x="170" y="320" as="sourcePoint"/>
                        <mxPoint x="220" y="270" as="targetPoint"/>
                    </mxGeometry>
                </mxCell>
                <mxCell id="44" value="" style="endArrow=none;html=1;strokeColor=default;" parent="1" source="35" target="31" edge="1">
                    <mxGeometry width="50" height="50" relative="1" as="geometry">
                        <mxPoint x="160" y="250" as="sourcePoint"/>
                        <mxPoint x="210" y="200" as="targetPoint"/>
                    </mxGeometry>
                </mxCell>
                <mxCell id="45" value="" style="endArrow=none;html=1;strokeColor=default;" parent="1" source="31" target="36" edge="1">
                    <mxGeometry width="50" height="50" relative="1" as="geometry">
                        <mxPoint x="160" y="250" as="sourcePoint"/>
                        <mxPoint x="210" y="200" as="targetPoint"/>
                    </mxGeometry>
                </mxCell>
                <mxCell id="46" value="" style="endArrow=none;html=1;strokeColor=default;" parent="1" source="31" target="37" edge="1">
                    <mxGeometry width="50" height="50" relative="1" as="geometry">
                        <mxPoint x="160" y="250" as="sourcePoint"/>
                        <mxPoint x="210" y="200" as="targetPoint"/>
                    </mxGeometry>
                </mxCell>
                <mxCell id="47" value="" style="endArrow=none;html=1;strokeColor=default;" parent="1" source="31" target="38" edge="1">
                    <mxGeometry width="50" height="50" relative="1" as="geometry">
                        <mxPoint x="160" y="250" as="sourcePoint"/>
                        <mxPoint x="210" y="200" as="targetPoint"/>
                    </mxGeometry>
                </mxCell>
                <mxCell id="34" value="user_id" style="ellipse;whiteSpace=wrap;html=1;" parent="1" vertex="1">
                    <mxGeometry x="230" y="140" width="60" height="30" as="geometry"/>
                </mxCell>
                <mxCell id="35" value="google_id" style="ellipse;whiteSpace=wrap;html=1;" parent="1" vertex="1">
                    <mxGeometry x="250" y="210" width="70" height="30" as="geometry"/>
                </mxCell>
                <mxCell id="36" value="avatar" style="ellipse;whiteSpace=wrap;html=1;" parent="1" vertex="1">
                    <mxGeometry x="290" y="170" width="50" height="30" as="geometry"/>
                </mxCell>
                <mxCell id="33" value="id" style="ellipse;whiteSpace=wrap;html=1;fontStyle=4" parent="1" vertex="1">
                    <mxGeometry x="210" y="180" width="50" height="30" as="geometry"/>
                </mxCell>
                <mxCell id="37" value="created_at" style="ellipse;whiteSpace=wrap;html=1;dashed=1;" parent="1" vertex="1">
                    <mxGeometry x="300" y="130" width="110" height="30" as="geometry"/>
                </mxCell>
                <mxCell id="38" value="updated_at" style="ellipse;whiteSpace=wrap;html=1;dashed=1;" parent="1" vertex="1">
                    <mxGeometry x="340" y="200" width="110" height="30" as="geometry"/>
                </mxCell>
                <mxCell id="50" value="Password_reset" style="rounded=0;whiteSpace=wrap;html=1;" parent="1" vertex="1">
                    <mxGeometry x="160" y="452.5" width="100" height="40" as="geometry"/>
                </mxCell>
                <mxCell id="52" value="token" style="ellipse;whiteSpace=wrap;html=1;" parent="1" vertex="1">
                    <mxGeometry x="285" y="492.5" width="50" height="30" as="geometry"/>
                </mxCell>
                <mxCell id="53" value="created_at" style="ellipse;whiteSpace=wrap;html=1;dashed=1;" parent="1" vertex="1">
                    <mxGeometry x="287.5" y="447.5" width="110" height="30" as="geometry"/>
                </mxCell>
                <mxCell id="55" value="" style="endArrow=none;html=1;strokeColor=default;dashed=1;" parent="1" source="50" target="53" edge="1">
                    <mxGeometry width="50" height="50" relative="1" as="geometry">
                        <mxPoint x="405" y="482.5" as="sourcePoint"/>
                        <mxPoint x="455" y="432.5" as="targetPoint"/>
                    </mxGeometry>
                </mxCell>
                <mxCell id="56" value="" style="endArrow=none;html=1;strokeColor=default;" parent="1" source="50" target="52" edge="1">
                    <mxGeometry width="50" height="50" relative="1" as="geometry">
                        <mxPoint x="45" y="492.5" as="sourcePoint"/>
                        <mxPoint x="85" y="442.5" as="targetPoint"/>
                    </mxGeometry>
                </mxCell>
                <mxCell id="57" value="" style="endArrow=none;html=1;strokeColor=default;" parent="1" source="51" target="50" edge="1">
                    <mxGeometry width="50" height="50" relative="1" as="geometry">
                        <mxPoint x="205" y="552.5" as="sourcePoint"/>
                        <mxPoint x="255" y="502.5" as="targetPoint"/>
                    </mxGeometry>
                </mxCell>
                <mxCell id="58" value="Penyakit" style="rounded=0;whiteSpace=wrap;html=1;" parent="1" vertex="1">
                    <mxGeometry x="-255" y="640" width="90" height="40" as="geometry"/>
                </mxCell>
                <mxCell id="60" value="prefix" style="ellipse;whiteSpace=wrap;html=1;" parent="1" vertex="1">
                    <mxGeometry x="-330" y="695" width="50" height="30" as="geometry"/>
                </mxCell>
                <mxCell id="63" value="solution" style="ellipse;whiteSpace=wrap;html=1;" parent="1" vertex="1">
                    <mxGeometry x="-215" y="705" width="50" height="30" as="geometry"/>
                </mxCell>
                <mxCell id="66" value="created_at" style="ellipse;whiteSpace=wrap;html=1;dashed=1;" parent="1" vertex="1">
                    <mxGeometry x="-160" y="705" width="80" height="30" as="geometry"/>
                </mxCell>
                <mxCell id="67" value="updated_at" style="ellipse;whiteSpace=wrap;html=1;dashed=1;" parent="1" vertex="1">
                    <mxGeometry x="-190" y="745" width="80" height="30" as="geometry"/>
                </mxCell>
                <mxCell id="69" value="" style="endArrow=none;html=1;strokeColor=default;" parent="1" source="58" target="60" edge="1">
                    <mxGeometry width="50" height="50" relative="1" as="geometry">
                        <mxPoint x="170" y="690" as="sourcePoint"/>
                        <mxPoint x="220" y="640" as="targetPoint"/>
                    </mxGeometry>
                </mxCell>
                <mxCell id="70" value="" style="endArrow=none;html=1;strokeColor=default;" parent="1" source="58" target="62" edge="1">
                    <mxGeometry width="50" height="50" relative="1" as="geometry">
                        <mxPoint x="313.46153846153834" y="690" as="sourcePoint"/>
                        <mxPoint x="278.56788464496117" y="657.5987500274638" as="targetPoint"/>
                    </mxGeometry>
                </mxCell>
                <mxCell id="61" value="name" style="ellipse;whiteSpace=wrap;html=1;" parent="1" vertex="1">
                    <mxGeometry x="-270" y="735" width="50" height="30" as="geometry"/>
                </mxCell>
                <mxCell id="71" value="" style="endArrow=none;html=1;strokeColor=default;" parent="1" source="58" target="63" edge="1">
                    <mxGeometry width="50" height="50" relative="1" as="geometry">
                        <mxPoint x="290" y="600" as="sourcePoint"/>
                        <mxPoint x="340" y="550" as="targetPoint"/>
                    </mxGeometry>
                </mxCell>
                <mxCell id="73" value="" style="endArrow=none;html=1;strokeColor=default;" parent="1" source="58" target="66" edge="1">
                    <mxGeometry width="50" height="50" relative="1" as="geometry">
                        <mxPoint x="330" y="640" as="sourcePoint"/>
                        <mxPoint x="380" y="590" as="targetPoint"/>
                    </mxGeometry>
                </mxCell>
                <mxCell id="64" value="image" style="ellipse;whiteSpace=wrap;html=1;" parent="1" vertex="1">
                    <mxGeometry x="-240" y="770" width="50" height="30" as="geometry"/>
                </mxCell>
                <mxCell id="75" value="Gejala" style="rounded=0;whiteSpace=wrap;html=1;" parent="1" vertex="1">
                    <mxGeometry x="290" y="640" width="90" height="40" as="geometry"/>
                </mxCell>
                <mxCell id="76" value="id" style="ellipse;whiteSpace=wrap;html=1;fontStyle=4" parent="1" vertex="1">
                    <mxGeometry x="215" y="675" width="50" height="30" as="geometry"/>
                </mxCell>
                <mxCell id="77" value="prefix" style="ellipse;whiteSpace=wrap;html=1;" parent="1" vertex="1">
                    <mxGeometry x="230" y="715" width="50" height="30" as="geometry"/>
                </mxCell>
                <mxCell id="80" value="created_at" style="ellipse;whiteSpace=wrap;html=1;dashed=1;" parent="1" vertex="1">
                    <mxGeometry x="302.5" y="740" width="80" height="30" as="geometry"/>
                </mxCell>
                <mxCell id="81" value="updated_at" style="ellipse;whiteSpace=wrap;html=1;dashed=1;" parent="1" vertex="1">
                    <mxGeometry x="420" y="685" width="80" height="30" as="geometry"/>
                </mxCell>
                <mxCell id="82" value="" style="endArrow=none;html=1;strokeColor=default;" parent="1" source="75" target="76" edge="1">
                    <mxGeometry width="50" height="50" relative="1" as="geometry">
                        <mxPoint x="265" y="575" as="sourcePoint"/>
                        <mxPoint x="315" y="525" as="targetPoint"/>
                    </mxGeometry>
                </mxCell>
                <mxCell id="83" value="" style="endArrow=none;html=1;strokeColor=default;" parent="1" source="75" target="77" edge="1">
                    <mxGeometry width="50" height="50" relative="1" as="geometry">
                        <mxPoint x="165" y="645" as="sourcePoint"/>
                        <mxPoint x="215" y="595" as="targetPoint"/>
                    </mxGeometry>
                </mxCell>
                <mxCell id="85" value="name" style="ellipse;whiteSpace=wrap;html=1;" parent="1" vertex="1">
                    <mxGeometry x="290" y="695" width="50" height="30" as="geometry"/>
                </mxCell>
                <mxCell id="87" value="" style="endArrow=none;html=1;strokeColor=default;" parent="1" source="75" target="89" edge="1">
                    <mxGeometry width="50" height="50" relative="1" as="geometry">
                        <mxPoint x="325" y="595" as="sourcePoint"/>
                        <mxPoint x="375" y="545" as="targetPoint"/>
                    </mxGeometry>
                </mxCell>
                <mxCell id="89" value="image" style="ellipse;whiteSpace=wrap;html=1;" parent="1" vertex="1">
                    <mxGeometry x="357.5" y="695" width="50" height="30" as="geometry"/>
                </mxCell>
                <mxCell id="90" value="" style="endArrow=none;html=1;strokeColor=default;" parent="1" source="75" target="81" edge="1">
                    <mxGeometry width="50" height="50" relative="1" as="geometry">
                        <mxPoint x="359.4030512224542" y="645" as="sourcePoint"/>
                        <mxPoint x="403.71247062355405" y="668.6891253258357" as="targetPoint"/>
                    </mxGeometry>
                </mxCell>
                <mxCell id="93" value="id" style="ellipse;whiteSpace=wrap;html=1;fontStyle=4" parent="1" vertex="1">
                    <mxGeometry x="80" y="695" width="50" height="30" as="geometry"/>
                </mxCell>
                <mxCell id="94" value="id_penyakit" style="ellipse;whiteSpace=wrap;html=1;" parent="1" vertex="1">
                    <mxGeometry x="-50" y="765" width="90" height="30" as="geometry"/>
                </mxCell>
                <mxCell id="95" value="id_gejala" style="ellipse;whiteSpace=wrap;html=1;" parent="1" vertex="1">
                    <mxGeometry x="70" y="775" width="90" height="30" as="geometry"/>
                </mxCell>
                <mxCell id="97" value="created_at" style="ellipse;whiteSpace=wrap;html=1;dashed=1;" parent="1" vertex="1">
                    <mxGeometry x="-30" y="705" width="80" height="30" as="geometry"/>
                </mxCell>
                <mxCell id="98" value="updated_at" style="ellipse;whiteSpace=wrap;html=1;dashed=1;" parent="1" vertex="1">
                    <mxGeometry x="25" y="735" width="80" height="30" as="geometry"/>
                </mxCell>
                <mxCell id="99" value="" style="endArrow=none;html=1;strokeColor=default;" parent="1" source="116" target="93" edge="1">
                    <mxGeometry width="50" height="50" relative="1" as="geometry">
                        <mxPoint x="-70" y="740" as="sourcePoint"/>
                        <mxPoint x="-20" y="690" as="targetPoint"/>
                    </mxGeometry>
                </mxCell>
                <mxCell id="102" value="" style="endArrow=none;html=1;strokeColor=default;" parent="1" source="116" target="97" edge="1">
                    <mxGeometry width="50" height="50" relative="1" as="geometry">
                        <mxPoint x="55" y="804.3181818181818" as="sourcePoint"/>
                        <mxPoint x="70" y="660" as="targetPoint"/>
                    </mxGeometry>
                </mxCell>
                <mxCell id="103" value="" style="endArrow=none;html=1;strokeColor=default;" parent="1" source="116" target="98" edge="1">
                    <mxGeometry width="50" height="50" relative="1" as="geometry">
                        <mxPoint x="143.07692307692332" y="809.9999999999998" as="sourcePoint"/>
                        <mxPoint x="70" y="660" as="targetPoint"/>
                    </mxGeometry>
                </mxCell>
                <mxCell id="105" value="Mendaftar" style="rhombus;whiteSpace=wrap;html=1;" parent="1" vertex="1">
                    <mxGeometry x="80" y="240" width="80" height="80" as="geometry"/>
                </mxCell>
                <mxCell id="110" value="" style="endArrow=none;html=1;strokeColor=default;" parent="1" source="105" target="2" edge="1">
                    <mxGeometry width="50" height="50" relative="1" as="geometry">
                        <mxPoint x="140" y="400" as="sourcePoint"/>
                        <mxPoint x="190" y="350" as="targetPoint"/>
                    </mxGeometry>
                </mxCell>
                <mxCell id="111" value="" style="endArrow=none;html=1;strokeColor=default;" parent="1" source="105" target="31" edge="1">
                    <mxGeometry width="50" height="50" relative="1" as="geometry">
                        <mxPoint x="100" y="290" as="sourcePoint"/>
                        <mxPoint x="10" y="290" as="targetPoint"/>
                    </mxGeometry>
                </mxCell>
                <mxCell id="116" value="Rule" style="rhombus;whiteSpace=wrap;html=1;" parent="1" vertex="1">
                    <mxGeometry y="620" width="80" height="80" as="geometry"/>
                </mxCell>
                <mxCell id="119" value="" style="endArrow=none;html=1;strokeColor=default;" parent="1" source="75" target="85" edge="1">
                    <mxGeometry width="50" height="50" relative="1" as="geometry">
                        <mxPoint x="312.66237242127477" y="685" as="sourcePoint"/>
                        <mxPoint x="276.5233910735801" y="726.6884965184511" as="targetPoint"/>
                    </mxGeometry>
                </mxCell>
                <mxCell id="120" value="" style="endArrow=none;html=1;strokeColor=default;" parent="1" source="116" target="58" edge="1">
                    <mxGeometry width="50" height="50" relative="1" as="geometry">
                        <mxPoint x="480" y="970" as="sourcePoint"/>
                        <mxPoint x="530" y="920" as="targetPoint"/>
                    </mxGeometry>
                </mxCell>
                <mxCell id="122" value="" style="endArrow=none;html=1;strokeColor=default;" parent="1" source="116" target="75" edge="1">
                    <mxGeometry width="50" height="50" relative="1" as="geometry">
                        <mxPoint x="351.60000000000014" y="791.6" as="sourcePoint"/>
                        <mxPoint x="354.16666666666674" y="730" as="targetPoint"/>
                    </mxGeometry>
                </mxCell>
                <mxCell id="125" value="Auth_group" style="rounded=0;whiteSpace=wrap;html=1;" parent="1" vertex="1">
                    <mxGeometry x="-90" y="475" width="90" height="40" as="geometry"/>
                </mxCell>
                <mxCell id="126" value="id" style="ellipse;whiteSpace=wrap;html=1;fontStyle=4" parent="1" vertex="1">
                    <mxGeometry x="-90" y="545" width="50" height="30" as="geometry"/>
                </mxCell>
                <mxCell id="127" value="name" style="ellipse;whiteSpace=wrap;html=1;" parent="1" vertex="1">
                    <mxGeometry x="-143.75" y="530" width="50" height="30" as="geometry"/>
                </mxCell>
                <mxCell id="128" value="description" style="ellipse;whiteSpace=wrap;html=1;" parent="1" vertex="1">
                    <mxGeometry x="-30" y="525" width="90" height="40" as="geometry"/>
                </mxCell>
                <mxCell id="130" value="" style="endArrow=none;html=1;strokeColor=default;" parent="1" source="125" target="127" edge="1">
                    <mxGeometry width="50" height="50" relative="1" as="geometry">
                        <mxPoint x="180" y="445" as="sourcePoint"/>
                        <mxPoint x="230" y="395" as="targetPoint"/>
                    </mxGeometry>
                </mxCell>
                <mxCell id="131" value="" style="endArrow=none;html=1;strokeColor=default;" parent="1" source="125" target="126" edge="1">
                    <mxGeometry width="50" height="50" relative="1" as="geometry">
                        <mxPoint x="120" y="445" as="sourcePoint"/>
                        <mxPoint x="170" y="395" as="targetPoint"/>
                    </mxGeometry>
                </mxCell>
                <mxCell id="132" value="" style="endArrow=none;html=1;strokeColor=default;" parent="1" source="125" target="128" edge="1">
                    <mxGeometry width="50" height="50" relative="1" as="geometry">
                        <mxPoint x="160" y="465" as="sourcePoint"/>
                        <mxPoint x="210" y="415" as="targetPoint"/>
                    </mxGeometry>
                </mxCell>
                <mxCell id="135" value="id" style="ellipse;whiteSpace=wrap;html=1;fontStyle=4" parent="1" vertex="1">
                    <mxGeometry x="30" y="400" width="50" height="30" as="geometry"/>
                </mxCell>
                <mxCell id="136" value="group_id" style="ellipse;whiteSpace=wrap;html=1;" parent="1" vertex="1">
                    <mxGeometry x="85" y="375" width="60" height="30" as="geometry"/>
                </mxCell>
                <mxCell id="137" value="user_id" style="ellipse;whiteSpace=wrap;html=1;" parent="1" vertex="1">
                    <mxGeometry x="30" y="345" width="50" height="30" as="geometry"/>
                </mxCell>
                <mxCell id="138" value="" style="endArrow=none;html=1;strokeColor=default;" parent="1" source="135" target="142" edge="1">
                    <mxGeometry width="50" height="50" relative="1" as="geometry">
                        <mxPoint x="220" y="470" as="sourcePoint"/>
                        <mxPoint x="312.2222222222224" y="409.9999999999999" as="targetPoint"/>
                    </mxGeometry>
                </mxCell>
                <mxCell id="139" value="" style="endArrow=none;html=1;strokeColor=default;" parent="1" source="142" target="136" edge="1">
                    <mxGeometry width="50" height="50" relative="1" as="geometry">
                        <mxPoint x="325" y="387.47067487170636" as="sourcePoint"/>
                        <mxPoint x="390" y="390" as="targetPoint"/>
                    </mxGeometry>
                </mxCell>
                <mxCell id="140" value="" style="endArrow=none;html=1;strokeColor=default;" parent="1" source="142" target="137" edge="1">
                    <mxGeometry width="50" height="50" relative="1" as="geometry">
                        <mxPoint x="307.9863129555165" y="369.9999999999999" as="sourcePoint"/>
                        <mxPoint x="360" y="450" as="targetPoint"/>
                    </mxGeometry>
                </mxCell>
                <mxCell id="142" value="Authorization" style="rhombus;whiteSpace=wrap;html=1;" parent="1" vertex="1">
                    <mxGeometry x="-90" y="340" width="90" height="85" as="geometry"/>
                </mxCell>
                <mxCell id="144" value="" style="endArrow=none;html=1;strokeColor=default;" parent="1" source="142" target="2" edge="1">
                    <mxGeometry width="50" height="50" relative="1" as="geometry">
                        <mxPoint x="190" y="490" as="sourcePoint"/>
                        <mxPoint x="240" y="440" as="targetPoint"/>
                    </mxGeometry>
                </mxCell>
                <mxCell id="145" value="" style="endArrow=none;html=1;strokeColor=default;" parent="1" source="142" target="125" edge="1">
                    <mxGeometry width="50" height="50" relative="1" as="geometry">
                        <mxPoint x="106.42857142857133" y="388.57142857142856" as="sourcePoint"/>
                        <mxPoint x="-6.304347826086996" y="310" as="targetPoint"/>
                    </mxGeometry>
                </mxCell>
                <mxCell id="147" value="Users_profile" style="rounded=0;whiteSpace=wrap;html=1;" parent="1" vertex="1">
                    <mxGeometry x="-400" y="260" width="90" height="40" as="geometry"/>
                </mxCell>
                <mxCell id="148" value="&lt;u&gt;id&lt;/u&gt;" style="ellipse;whiteSpace=wrap;html=1;" parent="1" vertex="1">
                    <mxGeometry x="-480" y="270" width="50" height="30" as="geometry"/>
                </mxCell>
                <mxCell id="150" value="address" style="ellipse;whiteSpace=wrap;html=1;" parent="1" vertex="1">
                    <mxGeometry x="-480" y="220" width="50" height="30" as="geometry"/>
                </mxCell>
                <mxCell id="151" value="city" style="ellipse;whiteSpace=wrap;html=1;" parent="1" vertex="1">
                    <mxGeometry x="-390" y="170" width="50" height="30" as="geometry"/>
                </mxCell>
                <mxCell id="152" value="province" style="ellipse;whiteSpace=wrap;html=1;" parent="1" vertex="1">
                    <mxGeometry x="-440" y="135" width="50" height="30" as="geometry"/>
                </mxCell>
                <mxCell id="153" value="profession" style="ellipse;whiteSpace=wrap;html=1;" parent="1" vertex="1">
                    <mxGeometry x="-490" y="170" width="70" height="30" as="geometry"/>
                </mxCell>
                <mxCell id="154" value="created_at" style="ellipse;whiteSpace=wrap;html=1;dashed=1;" parent="1" vertex="1">
                    <mxGeometry x="-470" y="320" width="70" height="30" as="geometry"/>
                </mxCell>
                <mxCell id="155" value="updated_at" style="ellipse;whiteSpace=wrap;html=1;dashed=1;" parent="1" vertex="1">
                    <mxGeometry x="-390" y="320" width="80" height="30" as="geometry"/>
                </mxCell>
                <mxCell id="156" value="" style="endArrow=none;html=1;strokeColor=default;" parent="1" source="147" target="152" edge="1">
                    <mxGeometry width="50" height="50" relative="1" as="geometry">
                        <mxPoint x="-320" y="180" as="sourcePoint"/>
                        <mxPoint x="-270" y="130" as="targetPoint"/>
                    </mxGeometry>
                </mxCell>
                <mxCell id="157" value="" style="endArrow=none;html=1;strokeColor=default;" parent="1" source="147" target="151" edge="1">
                    <mxGeometry width="50" height="50" relative="1" as="geometry">
                        <mxPoint x="-330" y="170" as="sourcePoint"/>
                        <mxPoint x="-280" y="120" as="targetPoint"/>
                    </mxGeometry>
                </mxCell>
                <mxCell id="158" value="" style="endArrow=none;html=1;strokeColor=default;" parent="1" source="147" target="149" edge="1">
                    <mxGeometry width="50" height="50" relative="1" as="geometry">
                        <mxPoint x="-290" y="180" as="sourcePoint"/>
                        <mxPoint x="-240" y="130" as="targetPoint"/>
                    </mxGeometry>
                </mxCell>
                <mxCell id="159" value="" style="endArrow=none;html=1;strokeColor=default;" parent="1" source="147" target="153" edge="1">
                    <mxGeometry width="50" height="50" relative="1" as="geometry">
                        <mxPoint x="-310" y="220" as="sourcePoint"/>
                        <mxPoint x="-260" y="170" as="targetPoint"/>
                    </mxGeometry>
                </mxCell>
                <mxCell id="160" value="" style="endArrow=none;html=1;strokeColor=default;" parent="1" source="147" target="150" edge="1">
                    <mxGeometry width="50" height="50" relative="1" as="geometry">
                        <mxPoint x="-300" y="240" as="sourcePoint"/>
                        <mxPoint x="-250" y="190" as="targetPoint"/>
                    </mxGeometry>
                </mxCell>
                <mxCell id="161" value="" style="endArrow=none;html=1;strokeColor=default;" parent="1" source="147" target="148" edge="1">
                    <mxGeometry width="50" height="50" relative="1" as="geometry">
                        <mxPoint x="-290" y="250" as="sourcePoint"/>
                        <mxPoint x="-240" y="200" as="targetPoint"/>
                    </mxGeometry>
                </mxCell>
                <mxCell id="162" value="" style="endArrow=none;html=1;strokeColor=default;" parent="1" source="147" target="154" edge="1">
                    <mxGeometry width="50" height="50" relative="1" as="geometry">
                        <mxPoint x="-310" y="250" as="sourcePoint"/>
                        <mxPoint x="-260" y="200" as="targetPoint"/>
                    </mxGeometry>
                </mxCell>
                <mxCell id="163" value="" style="endArrow=none;html=1;strokeColor=default;" parent="1" source="147" target="155" edge="1">
                    <mxGeometry width="50" height="50" relative="1" as="geometry">
                        <mxPoint x="-290" y="230" as="sourcePoint"/>
                        <mxPoint x="-240" y="180" as="targetPoint"/>
                    </mxGeometry>
                </mxCell>
                <mxCell id="164" value="Berisi" style="rhombus;whiteSpace=wrap;html=1;" parent="1" vertex="1">
                    <mxGeometry x="-250" y="240" width="80" height="80" as="geometry"/>
                </mxCell>
                <mxCell id="165" value="" style="endArrow=none;html=1;strokeColor=default;" parent="1" source="147" target="164" edge="1">
                    <mxGeometry width="50" height="50" relative="1" as="geometry">
                        <mxPoint x="-250" y="380" as="sourcePoint"/>
                        <mxPoint x="-200" y="330" as="targetPoint"/>
                    </mxGeometry>
                </mxCell>
                <mxCell id="166" value="" style="endArrow=none;html=1;strokeColor=default;" parent="1" source="2" target="164" edge="1">
                    <mxGeometry width="50" height="50" relative="1" as="geometry">
                        <mxPoint x="-240" y="410" as="sourcePoint"/>
                        <mxPoint x="-190" y="360" as="targetPoint"/>
                    </mxGeometry>
                </mxCell>
                <mxCell id="170" value="user_id" style="ellipse;whiteSpace=wrap;html=1;" parent="1" vertex="1">
                    <mxGeometry x="-310" y="380" width="90" height="30" as="geometry"/>
                </mxCell>
                <mxCell id="171" value="penyakit_id" style="ellipse;whiteSpace=wrap;html=1;" parent="1" vertex="1">
                    <mxGeometry x="-400" y="510" width="70" height="35" as="geometry"/>
                </mxCell>
                <mxCell id="172" value="answer_log" style="ellipse;whiteSpace=wrap;html=1;" parent="1" vertex="1">
                    <mxGeometry x="-388.13" y="410" width="76.25" height="35" as="geometry"/>
                </mxCell>
                <mxCell id="173" value="result" style="ellipse;whiteSpace=wrap;html=1;" parent="1" vertex="1">
                    <mxGeometry x="-300" y="490" width="50" height="30" as="geometry"/>
                </mxCell>
                <mxCell id="174" value="created_at" style="ellipse;whiteSpace=wrap;html=1;dashed=1;" parent="1" vertex="1">
                    <mxGeometry x="-370" y="460" width="70" height="35" as="geometry"/>
                </mxCell>
                <mxCell id="175" value="updated_at" style="ellipse;whiteSpace=wrap;html=1;dashed=1;" parent="1" vertex="1">
                    <mxGeometry x="-325" y="533" width="70" height="35" as="geometry"/>
                </mxCell>
                <mxCell id="176" value="" style="endArrow=none;html=1;strokeColor=default;" parent="1" source="61" target="58" edge="1">
                    <mxGeometry width="50" height="50" relative="1" as="geometry">
                        <mxPoint x="-80" y="815" as="sourcePoint"/>
                        <mxPoint x="-30" y="765" as="targetPoint"/>
                    </mxGeometry>
                </mxCell>
                <mxCell id="59" value="id" style="ellipse;whiteSpace=wrap;html=1;fontStyle=4" parent="1" vertex="1">
                    <mxGeometry x="-326.87" y="745" width="50" height="30" as="geometry"/>
                </mxCell>
                <mxCell id="191" value="Diagnosa" style="rhombus;whiteSpace=wrap;html=1;" parent="1" vertex="1">
                    <mxGeometry x="-250" y="425" width="80" height="80" as="geometry"/>
                </mxCell>
                <mxCell id="193" value="" style="endArrow=none;html=1;strokeColor=default;" parent="1" source="58" target="191" edge="1">
                    <mxGeometry width="50" height="50" relative="1" as="geometry">
                        <mxPoint x="-384.2857142857142" y="559.2857142857142" as="sourcePoint"/>
                        <mxPoint x="-480.0000000000002" y="543.3333333333333" as="targetPoint"/>
                    </mxGeometry>
                </mxCell>
                <mxCell id="194" value="" style="endArrow=none;html=1;strokeColor=default;" parent="1" source="191" target="170" edge="1">
                    <mxGeometry width="50" height="50" relative="1" as="geometry">
                        <mxPoint x="-342.6261944493983" y="480.0000000000001" as="sourcePoint"/>
                        <mxPoint x="-490" y="390" as="targetPoint"/>
                    </mxGeometry>
                </mxCell>
                <mxCell id="196" value="" style="endArrow=none;html=1;strokeColor=default;" parent="1" source="191" target="169" edge="1">
                    <mxGeometry width="50" height="50" relative="1" as="geometry">
                        <mxPoint x="-393" y="520" as="sourcePoint"/>
                        <mxPoint x="-510" y="420" as="targetPoint"/>
                    </mxGeometry>
                </mxCell>
                <mxCell id="149" value="user_id" style="ellipse;whiteSpace=wrap;html=1;" parent="1" vertex="1">
                    <mxGeometry x="-410" y="210" width="50" height="30" as="geometry"/>
                </mxCell>
                <mxCell id="197" value="" style="endArrow=none;html=1;strokeColor=default;" parent="1" source="172" target="191" edge="1">
                    <mxGeometry width="50" height="50" relative="1" as="geometry">
                        <mxPoint x="-300" y="510" as="sourcePoint"/>
                        <mxPoint x="-379.7619047619048" y="480.0000000000001" as="targetPoint"/>
                    </mxGeometry>
                </mxCell>
                <mxCell id="198" value="" style="endArrow=none;html=1;strokeColor=default;" parent="1" source="191" target="173" edge="1">
                    <mxGeometry width="50" height="50" relative="1" as="geometry">
                        <mxPoint x="-351.90462721642325" y="520.0000000000001" as="sourcePoint"/>
                        <mxPoint x="-250" y="580" as="targetPoint"/>
                    </mxGeometry>
                </mxCell>
                <mxCell id="199" value="" style="endArrow=none;html=1;strokeColor=default;" parent="1" source="191" target="174" edge="1">
                    <mxGeometry width="50" height="50" relative="1" as="geometry">
                        <mxPoint x="-396.31977125797766" y="520.0000000000001" as="sourcePoint"/>
                        <mxPoint x="-230" y="580" as="targetPoint"/>
                    </mxGeometry>
                </mxCell>
                <mxCell id="169" value="id" style="ellipse;whiteSpace=wrap;html=1;fontStyle=4" parent="1" vertex="1">
                    <mxGeometry x="-300" y="430" width="50" height="30" as="geometry"/>
                </mxCell>
                <mxCell id="202" value="1" style="text;html=1;align=center;verticalAlign=middle;resizable=0;points=[];autosize=1;strokeColor=none;fillColor=none;" parent="1" vertex="1">
                    <mxGeometry x="-157.5" y="250" width="30" height="30" as="geometry"/>
                </mxCell>
                <mxCell id="203" value="M" style="text;html=1;align=center;verticalAlign=middle;resizable=0;points=[];autosize=1;strokeColor=none;fillColor=none;" parent="1" vertex="1">
                    <mxGeometry x="-177.5" y="375" width="30" height="30" as="geometry"/>
                </mxCell>
                <mxCell id="204" value="1" style="text;html=1;align=center;verticalAlign=middle;resizable=0;points=[];autosize=1;strokeColor=none;fillColor=none;" parent="1" vertex="1">
                    <mxGeometry x="-280" y="250" width="30" height="30" as="geometry"/>
                </mxCell>
                <mxCell id="206" value="M" style="text;html=1;align=center;verticalAlign=middle;resizable=0;points=[];autosize=1;strokeColor=none;fillColor=none;" parent="1" vertex="1">
                    <mxGeometry x="-250" y="580" width="30" height="30" as="geometry"/>
                </mxCell>
                <mxCell id="207" value="" style="endArrow=none;html=1;strokeColor=default;" parent="1" source="191" target="2" edge="1">
                    <mxGeometry width="50" height="50" relative="1" as="geometry">
                        <mxPoint x="-290" y="480" as="sourcePoint"/>
                        <mxPoint x="-240" y="430" as="targetPoint"/>
                    </mxGeometry>
                </mxCell>
                <mxCell id="208" value="1" style="text;html=1;align=center;verticalAlign=middle;resizable=0;points=[];autosize=1;strokeColor=none;fillColor=none;" parent="1" vertex="1">
                    <mxGeometry x="20" y="250" width="30" height="30" as="geometry"/>
                </mxCell>
                <mxCell id="209" value="1" style="text;html=1;align=center;verticalAlign=middle;resizable=0;points=[];autosize=1;strokeColor=none;fillColor=none;" parent="1" vertex="1">
                    <mxGeometry x="200" y="250" width="30" height="30" as="geometry"/>
                </mxCell>
                <mxCell id="213" value="M" style="text;html=1;align=center;verticalAlign=middle;resizable=0;points=[];autosize=1;strokeColor=none;fillColor=none;" parent="1" vertex="1">
                    <mxGeometry x="-30" y="315" width="30" height="30" as="geometry"/>
                </mxCell>
                <mxCell id="214" value="M" style="text;html=1;align=center;verticalAlign=middle;resizable=0;points=[];autosize=1;strokeColor=none;fillColor=none;" parent="1" vertex="1">
                    <mxGeometry x="-30" y="430" width="30" height="30" as="geometry"/>
                </mxCell>
                <mxCell id="215" value="M" style="text;html=1;align=center;verticalAlign=middle;resizable=0;points=[];autosize=1;strokeColor=none;fillColor=none;" parent="1" vertex="1">
                    <mxGeometry x="-60" y="630" width="30" height="30" as="geometry"/>
                </mxCell>
                <mxCell id="216" value="M" style="text;html=1;align=center;verticalAlign=middle;resizable=0;points=[];autosize=1;strokeColor=none;fillColor=none;" parent="1" vertex="1">
                    <mxGeometry x="215" y="630" width="30" height="30" as="geometry"/>
                </mxCell>
                <mxCell id="51" value="email" style="ellipse;whiteSpace=wrap;html=1;" parent="1" vertex="1">
                    <mxGeometry x="287.5" y="407.5" width="50" height="30" as="geometry"/>
                </mxCell>
                <mxCell id="219" value="" style="endArrow=none;html=1;strokeColor=default;" edge="1" parent="1" source="58" target="62">
                    <mxGeometry width="50" height="50" relative="1" as="geometry">
                        <mxPoint x="-222.18018267911475" y="680" as="sourcePoint"/>
                        <mxPoint x="-271.4515557236657" y="760.904161033704" as="targetPoint"/>
                    </mxGeometry>
                </mxCell>
                <mxCell id="62" value="reason" style="ellipse;whiteSpace=wrap;html=1;" parent="1" vertex="1">
                    <mxGeometry x="-276.87" y="700" width="50" height="30" as="geometry"/>
                </mxCell>
            </root>
        </mxGraphModel>
    </diagram>
</mxfile>
